<!DOCTYPE svg PUBLIC "-//W3C//DTD SVG 1.1//EN" "http://www.w3.org/Graphics/SVG/1.1/DTD/svg11.dtd">
<!-- Uploaded to: SVG Repo, www.svgrepo.com, Transformed by: SVG Repo Mixer Tools -->
<svg width="800px" height="800px" viewBox="0 0 48 48" fill="none" xmlns="http://www.w3.org/2000/svg">
<g id="SVGRepo_bgCarrier" stroke-width="0"/>
<g id="SVGRepo_tracerCarrier" stroke-linecap="round" stroke-linejoin="round"/>
<g id="SVGRepo_iconCarrier"> <g id="layers"> <g id="layers_2"> <path id="Combined Shape" fill-rule="evenodd" clip-rule="evenodd" d="M29 32H7C5.34172 32 4 30.6583 4 29V7C4 5.34172 5.34172 4 7 4H29C30.6583 4 32 5.34172 32 7V16H41.0008C42.6576 16 44.0008 17.3423 44.0008 19V41C44.0008 42.6577 42.6576 44 41.0008 44H19.0008C17.3425 44 16.0008 42.6583 16.0008 41V34.988C16.0008 34.4357 16.4485 33.988 17.0008 33.988C17.5531 33.988 18.0008 34.4357 18.0008 34.988V41C18.0008 41.5537 18.4471 42 19.0008 42H41.0008C41.5534 42 42.0008 41.5529 42.0008 41V19C42.0008 18.4471 41.5534 18 41.0008 18H32V29C32 30.6583 30.6583 32 29 32ZM30 18V29C30 29.5537 29.5537 30 29 30H7C6.44628 30 6 29.5537 6 29V7C6 6.44628 6.44628 6 7 6H29C29.5537 6 30 6.44628 30 7V16H26.9688C26.4165 16 25.9688 16.4477 25.9688 17C25.9688 17.5523 26.4165 18 26.9688 18H30Z" fill="#EE62A7"/> </g> </g> </g>
</svg>